HIERARCHY
ROOT Hips
{
	OFFSET 0.000000 83.214638 0.000000
	CHANNELS 6 Xposition Yposition Zposition Xrotation Yrotation Zrotation
	JOINT Pelvis
	{
		OFFSET 0.000000 0.000000 0.000000
		CHANNELS 3 Xrotation Yrotation Zrotation
		JOINT LeftUpLeg
		{
			OFFSET 8.479700 -4.795502 -0.379100
			CHANNELS 3 Xrotation Yrotation Zrotation
			JOINT LeftLeg
			{
				OFFSET 0.024144 -32.555107 0.112900
				CHANNELS 3 Xrotation Yrotation Zrotation
				JOINT LeftFoot
				{
					OFFSET -0.024144 -32.638630 -3.012600
					CHANNELS 3 Xrotation Yrotation Zrotation
					JOINT LeftToeBase
					{
						OFFSET 0.970200 -13.225400 11.864200
						CHANNELS 3 Xrotation Yrotation Zrotation
						End Site
						{
							OFFSET 0.000000 12.319262 0.000000
						}
					}
					JOINT LFootTongue
					{
						OFFSET 1.142400 -1.059800 6.665200
						CHANNELS 3 Xrotation Yrotation Zrotation
						End Site
						{
							OFFSET 0.000000 12.319262 0.000000
						}
					}
				}
				JOINT LeftPantLeg
				{
					OFFSET 0.918482 -16.533964 -2.284700
					CHANNELS 3 Xrotation Yrotation Zrotation
					End Site
					{
						OFFSET 0.350399 24.744368 0.000000
					}
				}
			}
		}
		JOINT RightUpLeg
		{
			OFFSET -8.479700 -4.795502 -0.379100
			CHANNELS 3 Xrotation Yrotation Zrotation
			JOINT RightLeg
			{
				OFFSET -0.023144 -32.555092 0.112900
				CHANNELS 3 Xrotation Yrotation Zrotation
				JOINT RightFoot
				{
					OFFSET 0.023144 -32.638641 -3.012700
					CHANNELS 3 Xrotation Yrotation Zrotation
					JOINT RightToeBase
					{
						OFFSET -0.970200 -13.225400 11.864200
						CHANNELS 3 Xrotation Yrotation Zrotation
						End Site
						{
							OFFSET 0.000000 12.319244 0.000000
						}
					}
					JOINT RFootTongue
					{
						OFFSET -1.142200 -1.059800 6.665200
						CHANNELS 3 Xrotation Yrotation Zrotation
						End Site
						{
							OFFSET 0.000000 12.319243 0.000000
						}
					}
				}
				JOINT RightPantLeg
				{
					OFFSET -0.919482 -16.533978 -2.284800
					CHANNELS 3 Xrotation Yrotation Zrotation
					End Site
					{
						OFFSET -0.350400 24.744419 0.000000
					}
				}
			}
		}
	}
	JOINT Spine
	{
		OFFSET 0.000000 7.722000 1.166200
		CHANNELS 3 Xrotation Yrotation Zrotation
		JOINT Spine1
		{
			OFFSET 0.000000 12.024101 0.248800
			CHANNELS 3 Xrotation Yrotation Zrotation
			JOINT Spine2
			{
				OFFSET 0.000000 11.502998 -0.491200
				CHANNELS 3 Xrotation Yrotation Zrotation
				JOINT Neck
				{
					OFFSET 0.000000 18.430702 -3.123100
					CHANNELS 3 Xrotation Yrotation Zrotation
					JOINT Head
					{
						OFFSET 0.000000 9.051102 1.034000
						CHANNELS 3 Xrotation Yrotation Zrotation
						JOINT HairB
						{
							OFFSET 0.208400 24.786102 24.822300
							CHANNELS 3 Xrotation Yrotation Zrotation
							End Site
							{
								OFFSET 0.000000 32.263779 0.000000
							}
						}
						JOINT HairA
						{
							OFFSET -7.081100 24.428299 23.196600
							CHANNELS 3 Xrotation Yrotation Zrotation
							End Site
							{
								OFFSET 0.000000 32.263779 0.000000
							}
						}
						JOINT Hat
						{
							OFFSET 16.728800 15.048294 -15.439601
							CHANNELS 3 Xrotation Yrotation Zrotation
							End Site
							{
								OFFSET 0.000000 32.263779 0.000000
							}
						}
					}
				}
				JOINT LeftShoulder
				{
					OFFSET 6.197800 13.665199 -4.064700
					CHANNELS 3 Xrotation Yrotation Zrotation
					JOINT LeftArm
					{
						OFFSET 7.778100 -0.187103 -1.709300
						CHANNELS 3 Xrotation Yrotation Zrotation
						JOINT LeftForeArm
						{
							OFFSET 22.049376 0.000000 0.000000
							CHANNELS 3 Xrotation Yrotation Zrotation
							JOINT LeftHand
							{
								OFFSET 23.009392 0.000000 0.000000
								CHANNELS 3 Xrotation Yrotation Zrotation
								JOINT LeftHandThumb1
								{
									OFFSET 3.507191 -2.063065 3.133727
									CHANNELS 3 Xrotation Yrotation Zrotation
									JOINT LeftHandThumb2
									{
										OFFSET 3.101337 -1.790558 1.790558
										CHANNELS 3 Xrotation Yrotation Zrotation
										JOINT LeftHandThumb3
										{
											OFFSET 3.058640 -1.765907 1.765906
											CHANNELS 3 Xrotation Yrotation Zrotation
											End Site
											{
												OFFSET -0.415260 3.926476 -0.049563
											}
										}
									}
								}
								JOINT LeftHandIndex1
								{
									OFFSET 11.334419 -0.901459 3.706815
									CHANNELS 3 Xrotation Yrotation Zrotation
									JOINT LeftHandIndex2
									{
										OFFSET 3.283112 0.000000 0.000000
										CHANNELS 3 Xrotation Yrotation Zrotation
										JOINT LeftHandIndex3
										{
											OFFSET 3.323853 0.000000 0.000000
											CHANNELS 3 Xrotation Yrotation Zrotation
											End Site
											{
												OFFSET -1.135597 3.097809 0.402452
											}
										}
									}
								}
								JOINT LeftHandMiddle1
								{
									OFFSET 11.335861 0.000000 0.000000
									CHANNELS 3 Xrotation Yrotation Zrotation
									JOINT LeftHandMiddle2
									{
										OFFSET 3.410492 0.000000 0.000000
										CHANNELS 3 Xrotation Yrotation Zrotation
										JOINT LeftHandMiddle3
										{
											OFFSET 3.312172 0.000000 0.000000
											CHANNELS 3 Xrotation Yrotation Zrotation
											End Site
											{
												OFFSET -1.150200 3.080154 0.400270
											}
										}
									}
								}
								JOINT LeftHandRing1
								{
									OFFSET 11.514786 -0.013176 -3.003090
									CHANNELS 3 Xrotation Yrotation Zrotation
									JOINT LeftHandRing2
									{
										OFFSET 3.053307 0.000000 0.000000
										CHANNELS 3 Xrotation Yrotation Zrotation
										JOINT LeftHandRing3
										{
											OFFSET 3.295807 0.000000 0.000000
											CHANNELS 3 Xrotation Yrotation Zrotation
											End Site
											{
												OFFSET -1.281006 3.013344 0.375733
											}
										}
									}
								}
								JOINT LeftHandPinky1
								{
									OFFSET 10.518692 -0.960396 -5.730441
									CHANNELS 3 Xrotation Yrotation Zrotation
									JOINT LeftHandPinky2
									{
										OFFSET 2.861649 0.000000 0.000000
										CHANNELS 3 Xrotation Yrotation Zrotation
										JOINT LeftHandPinky3
										{
											OFFSET 2.863380 0.000000 0.000000
											CHANNELS 3 Xrotation Yrotation Zrotation
											End Site
											{
												OFFSET -0.843597 2.711159 0.369971
											}
										}
									}
								}
							}
							JOINT LSleeve
							{
								OFFSET 6.676277 -0.344902 -1.011730
								CHANNELS 3 Xrotation Yrotation Zrotation
								End Site
								{
									OFFSET 0.000000 14.885353 0.000000
								}
							}
						}
					}
				}
				JOINT RightShoulder
				{
					OFFSET -6.197800 13.665199 -4.064700
					CHANNELS 3 Xrotation Yrotation Zrotation
					JOINT RightArm
					{
						OFFSET -7.778100 -0.187103 -1.709300
						CHANNELS 3 Xrotation Yrotation Zrotation
						JOINT RightForeArm
						{
							OFFSET -22.049376 0.000000 0.000000
							CHANNELS 3 Xrotation Yrotation Zrotation
							JOINT RightHand
							{
								OFFSET -23.009392 0.000000 0.000000
								CHANNELS 3 Xrotation Yrotation Zrotation
								JOINT RightHandThumb1
								{
									OFFSET -3.507191 -2.063065 3.133727
									CHANNELS 3 Xrotation Yrotation Zrotation
									JOINT RightHandThumb2
									{
										OFFSET -3.101337 -1.790558 1.790558
										CHANNELS 3 Xrotation Yrotation Zrotation
										JOINT RightHandThumb3
										{
											OFFSET -3.058640 -1.765907 1.765906
											CHANNELS 3 Xrotation Yrotation Zrotation
											End Site
											{
												OFFSET 0.415260 3.926476 -0.049563
											}
										}
									}
								}
								JOINT RightHandIndex1
								{
									OFFSET -11.334419 -0.901459 3.706815
									CHANNELS 3 Xrotation Yrotation Zrotation
									JOINT RightHandIndex2
									{
										OFFSET -3.283112 0.000000 0.000000
										CHANNELS 3 Xrotation Yrotation Zrotation
										JOINT RightHandIndex3
										{
											OFFSET -3.323853 0.000000 0.000000
											CHANNELS 3 Xrotation Yrotation Zrotation
											End Site
											{
												OFFSET 1.135597 3.097809 0.402452
											}
										}
									}
								}
								JOINT RightHandMiddle1
								{
									OFFSET -11.335861 0.000000 0.000000
									CHANNELS 3 Xrotation Yrotation Zrotation
									JOINT RightHandMiddle2
									{
										OFFSET -3.410492 0.000000 0.000000
										CHANNELS 3 Xrotation Yrotation Zrotation
										JOINT RightHandMiddle3
										{
											OFFSET -3.312172 0.000000 0.000000
											CHANNELS 3 Xrotation Yrotation Zrotation
											End Site
											{
												OFFSET 1.150200 3.080154 0.400270
											}
										}
									}
								}
								JOINT RightHandRing1
								{
									OFFSET -11.514786 -0.013176 -3.003090
									CHANNELS 3 Xrotation Yrotation Zrotation
									JOINT RightHandRing2
									{
										OFFSET -3.053307 0.000000 0.000000
										CHANNELS 3 Xrotation Yrotation Zrotation
										JOINT RightHandRing3
										{
											OFFSET -3.295807 0.000000 0.000000
											CHANNELS 3 Xrotation Yrotation Zrotation
											End Site
											{
												OFFSET 1.281006 3.013344 0.375733
											}
										}
									}
								}
								JOINT RightHandPinky1
								{
									OFFSET -10.518692 -0.960396 -5.730441
									CHANNELS 3 Xrotation Yrotation Zrotation
									JOINT RightHandPinky2
									{
										OFFSET -2.861649 0.000000 0.000000
										CHANNELS 3 Xrotation Yrotation Zrotation
										JOINT RightHandPinky3
										{
											OFFSET -2.863380 0.000000 0.000000
											CHANNELS 3 Xrotation Yrotation Zrotation
											End Site
											{
												OFFSET 0.843597 2.711159 0.369971
											}
										}
									}
								}
							}
							JOINT RSleeve
							{
								OFFSET -6.676277 -0.344902 -1.011730
								CHANNELS 3 Xrotation Yrotation Zrotation
								End Site
								{
									OFFSET 0.000000 14.885353 0.000000
								}
							}
						}
					}
				}
				JOINT Backpack
				{
					OFFSET 0.000000 -2.471497 36.677502
					CHANNELS 3 Xrotation Yrotation Zrotation
					End Site
					{
						OFFSET 0.000000 20.427315 0.000000
					}
				}
				JOINT Hood
				{
					OFFSET 0.000000 18.754097 -10.431000
					CHANNELS 3 Xrotation Yrotation Zrotation
					JOINT Hood1
					{
						OFFSET 0.000000 -5.011002 -7.685901
						CHANNELS 3 Xrotation Yrotation Zrotation
						End Site
						{
							OFFSET 0.000000 9.175140 0.000000
						}
					}
				}
				JOINT LHoodieString
				{
					OFFSET 5.250500 16.397697 3.089900
					CHANNELS 3 Xrotation Yrotation Zrotation
					JOINT LHoodieString1
					{
						OFFSET 0.257700 -6.364304 3.694600
						CHANNELS 3 Xrotation Yrotation Zrotation
						JOINT LHoodieString2
						{
							OFFSET 0.000000 -9.643799 2.679100
							CHANNELS 3 Xrotation Yrotation Zrotation
							End Site
							{
								OFFSET 0.000000 10.009018 0.000000
							}
						}
					}
				}
				JOINT RHoodieString
				{
					OFFSET -5.250500 16.397697 3.089900
					CHANNELS 3 Xrotation Yrotation Zrotation
					JOINT RHoodieString1
					{
						OFFSET -0.257700 -6.364304 3.694600
						CHANNELS 3 Xrotation Yrotation Zrotation
						JOINT RHoodieString2
						{
							OFFSET 0.000000 -9.643799 2.679100
							CHANNELS 3 Xrotation Yrotation Zrotation
							End Site
							{
								OFFSET 0.000000 10.009018 0.000000
							}
						}
					}
				}
			}
			JOINT LBackpack_Strap
			{
				OFFSET 15.223200 -7.719803 -6.610900
				CHANNELS 3 Xrotation Yrotation Zrotation
				End Site
				{
					OFFSET 0.000000 16.040596 0.000000
				}
			}
			JOINT RBackpack_Strap
			{
				OFFSET -15.223000 -7.719803 -6.610900
				CHANNELS 3 Xrotation Yrotation Zrotation
				End Site
				{
					OFFSET 0.000000 16.040596 0.000000
				}
			}
		}
	}
	JOINT BoyFacialAnim_Joint
	{
		OFFSET 1.000000 -82.208099 -1.550900
		CHANNELS 3 Xrotation Yrotation Zrotation
		End Site
		{
			OFFSET 0.000000 30.012791 0.000000
		}
	}
}
MOTION
Frames: 4
Frame Time: 0.016667
-10.128689 64.291695 -3.653667 -2.901698 4.672949 0.374364 -0.000000 0.000000 -0.000000 -61.660195 -7.998725 5.520241 62.099964 -20.298269 -9.347501 -0.382452 -4.209173 -0.751689 -0.000000 0.000000 0.000000 -0.000000 0.000000 -0.000000 0.000000 -0.000002 0.000000 -16.148980 -4.389632 -2.142767 81.875240 -12.185804 -7.171802 -33.073893 -0.210311 17.064435 -0.000003 0.000000 -0.000001 -0.000003 0.000000 -0.000001 -0.000002 0.000001 0.000001 8.955253 0.240396 -1.750528 3.966864 0.230936 -3.978306 3.989347 0.231039 -3.977842 5.038292 -8.338512 11.033142 -0.460167 -3.911049 -10.648856 0.000001 0.000000 -0.000000 0.000001 0.000000 -0.000000 0.000001 0.000000 -0.000000 -8.173990 -31.527982 -8.252503 -31.588553 -14.766823 -24.997729 -124.594535 -59.639709 -127.258719 -8.365621 -5.660518 17.684046 15.614799 18.236699 11.488236 11.421647 30.331326 -11.339189 -0.000001 -0.000000 0.000000 19.961300 12.194216 -48.814396 -0.280071 1.062295 -128.835208 -0.000000 -0.000004 -0.000002 7.703394 10.532980 -62.910878 0.990442 -0.061688 -121.377379 -0.000000 -0.000004 -0.000001 0.948619 15.112215 -68.414323 0.879497 -0.210889 -117.521191 -0.000001 0.000003 -0.000002 -16.314197 19.696877 -71.347685 0.695877 -0.323381 -142.818450 -0.000002 -0.000004 -0.000001 -0.000001 -0.000000 0.000002 -8.947958 32.923240 10.353825 -34.168417 8.238675 31.408871 50.102842 118.312346 -44.867523 -7.430163 8.835784 -25.387576 17.261071 -16.812980 -12.690446 10.409549 -24.931140 14.714505 0.000000 -0.000000 -0.000001 19.952629 -0.387286 46.095943 -0.057002 -1.141832 137.151551 0.000001 0.000001 0.000000 6.186501 -2.518751 61.008015 0.941180 0.201313 126.871406 -0.000001 0.000001 0.000002 0.195756 -7.578817 62.006240 0.865285 0.303845 119.921456 0.000001 0.000001 0.000001 -17.990699 -11.912571 65.482656 0.676394 0.402100 146.296122 0.000000 0.000001 -0.000001 0.000005 -0.000001 0.000002 0.000001 0.000000 -0.000000 0.000001 0.000000 -0.000000 0.000001 0.000000 -0.000000 0.000001 0.000000 -0.000000 0.000001 0.000000 -0.000000 0.000001 0.000000 -0.000001 0.000001 0.000000 -0.000000 0.000001 0.000000 -0.000000 0.000001 0.000000 -0.000001 -0.000001 0.000001 -0.000000 -0.000001 0.000001 -0.000000 -0.000000 0.000000 -0.000000 
-10.360182 65.776741 -3.396557 -0.962378 6.264118 0.605965 -0.000000 0.000000 0.000000 -60.951474 -8.005171 3.836663 57.943848 -20.050459 -8.491361 0.855950 -3.868964 -1.703317 0.000000 0.000001 -0.000000 0.000000 0.000001 -0.000000 0.000000 0.000001 -0.000000 -15.829617 -5.284544 -1.710540 77.427284 -12.574540 -7.367288 -32.579774 0.144122 16.163661 -0.000002 0.000000 0.000000 -0.000002 0.000000 0.000000 -0.000000 0.000001 0.000000 8.259234 0.086204 -1.909542 2.568484 -0.078459 -4.312727 2.590948 -0.078386 -4.312244 0.090886 -9.587594 9.553650 -0.716503 -4.945424 -10.676960 -0.000001 -0.000000 0.000000 -0.000001 -0.000000 0.000000 -0.000001 -0.000000 0.000000 -8.485032 -28.820482 -9.252593 -25.663304 -15.710622 -18.176238 -134.370312 -56.428957 -136.822609 -8.621285 -3.463225 20.162339 14.821208 17.379396 11.215547 10.269878 28.734859 -10.694112 -0.000001 0.000000 -0.000000 16.649757 9.371650 -44.593919 -0.351028 0.994022 -120.047350 0.000001 -0.000003 -0.000002 6.076233 7.776714 -58.086832 1.006494 0.042508 -113.465664 0.000000 -0.000001 -0.000002 0.133095 12.601308 -64.387203 0.867693 -0.128597 -110.199809 -0.000001 -0.000000 -0.000000 -15.415763 16.999636 -68.074993 0.715046 -0.239977 -133.253248 -0.000002 0.000005 0.000001 -0.000001 0.000003 0.000001 -8.020596 29.104095 7.655829 -24.846570 11.304223 29.134551 32.701955 121.145030 -30.427397 -8.088079 5.625851 -27.490545 15.061785 -14.238134 -12.274949 10.652999 -26.601734 13.514519 0.000001 0.000001 -0.000002 19.237419 0.147136 44.669977 -0.156347 -1.095435 130.775993 -0.000002 0.000000 0.000000 5.981524 -1.717697 59.670561 0.967284 0.104958 121.723670 0.000000 -0.000001 0.000001 0.026742 -7.126160 61.895345 0.865372 0.227836 115.797607 -0.000003 0.000001 -0.000001 -16.993710 -12.001669 65.678594 0.697943 0.337668 141.340055 0.000001 -0.000000 -0.000002 0.000001 0.000000 -0.000000 -0.000000 0.000000 -0.000001 -0.000000 0.000000 -0.000001 -0.000000 0.000000 -0.000001 -0.000000 0.000000 -0.000001 -0.000000 0.000000 -0.000001 0.000000 0.000000 -0.000001 -0.000000 0.000000 -0.000001 -0.000000 0.000000 -0.000001 0.000000 0.000000 -0.000001 0.000001 -0.000000 0.000000 0.000001 -0.000000 0.000000 -0.000000 0.000000 0.000000 
-10.556738 67.345016 -3.087239 1.146557 7.744047 0.749608 0.000000 -0.000001 -0.000000 -60.089737 -8.118271 2.110108 53.432587 -19.704513 -7.389439 2.172723 -3.502925 -2.781754 -0.000000 0.000002 -0.000000 -0.000000 0.000002 0.000000 0.000000 -0.000001 0.000000 -15.678597 -5.760941 -1.087081 72.693881 -13.127716 -7.640910 -31.336040 0.480941 15.487080 0.000001 -0.000000 0.000000 0.000001 -0.000000 0.000000 -0.000002 0.000000 0.000000 7.511629 -0.091859 -2.049698 1.064139 -0.427330 -4.603813 1.086613 -0.427258 -4.603350 -5.694801 -10.493379 7.608347 -0.030810 -6.025160 -10.033726 0.000000 0.000000 0.000000 0.000000 0.000000 0.000000 0.000000 0.000000 0.000000 -8.676803 -25.765729 -10.075467 -18.326613 -15.006484 -10.670904 -143.139974 -54.309583 -144.303852 -8.338685 -4.453249 22.583583 13.542274 15.852902 10.916872 8.824520 26.648366 -9.992337 -0.000000 0.000001 -0.000001 13.337087 4.780032 -39.370754 -0.419275 0.893009 -109.137742 0.000000 -0.000000 -0.000004 4.808495 3.926245 -52.134311 1.003531 0.176442 -103.588841 0.000001 0.000004 -0.000003 -0.215157 9.437572 -59.277900 0.838037 -0.028820 -100.964573 -0.000002 0.000002 -0.000004 -13.745416 13.901469 -63.510500 0.720001 -0.132167 -121.198729 0.000001 -0.000002 0.000003 -0.000000 0.000001 0.000000 -7.681960 25.388561 6.444245 -12.655746 14.347760 25.486332 5.490576 121.793638 -9.171599 -8.726486 2.964762 -28.818651 11.624275 -10.440128 -11.249736 11.086821 -29.256200 11.708963 -0.000001 -0.000001 -0.000002 18.267573 0.888042 42.688518 -0.289851 -1.006629 121.263397 -0.000001 -0.000000 0.000002 5.769990 -0.545442 57.834866 0.983941 -0.035238 114.143273 0.000000 0.000000 0.000002 -0.199852 -6.376005 61.868851 0.850961 0.117619 109.628757 -0.000002 0.000001 0.000002 -15.494089 -12.026846 66.080878 0.715353 0.240901 133.925953 0.000001 0.000001 0.000002 -0.000002 -0.000000 0.000001 0.000001 0.000000 -0.000000 0.000001 0.000000 -0.000000 0.000001 0.000000 -0.000000 0.000001 0.000000 -0.000000 0.000001 0.000000 0.000001 0.000001 -0.000000 -0.000000 0.000001 0.000000 -0.000000 0.000001 0.000000 0.000001 0.000001 -0.000000 -0.000000 -0.000001 0.000000 -0.000001 -0.000001 0.000000 -0.000001 0.000000 -0.000001 -0.000000 
-10.786145 69.983505 -2.433637 4.070977 9.462047 1.005259 -0.000000 0.000000 -0.000000 -57.480126 -8.446779 -0.313424 45.449499 -19.299949 -5.396900 4.369644 -2.482783 -4.587605 0.000000 -0.000000 -0.000000 0.000000 -0.000000 -0.000000 0.000000 0.000001 -0.000000 -14.683286 -6.318606 -0.374929 64.253311 -13.886631 -8.336783 -28.468324 1.081552 14.749850 0.000003 -0.000000 0.000000 0.000003 -0.000000 0.000000 -0.000002 -0.000000 -0.000001 6.669081 -0.290523 -2.191970 -0.631353 -0.805340 -4.887748 -0.608884 -0.805299 -4.887265 -14.077577 -10.176102 5.940332 3.281337 -6.836341 -9.520002 -0.000000 -0.000001 0.000001 -0.000000 -0.000001 0.000001 -0.000000 -0.000001 0.000001 -8.036796 -21.485209 -9.500182 -14.726084 -11.896508 -5.740302 -146.957080 -62.475228 -145.446256 -7.887423 -6.581192 25.772372 11.852992 13.783168 10.547945 7.134287 24.125485 -9.310021 -0.000000 0.000002 -0.000001 10.702064 -1.002496 -33.147386 -0.468586 0.763145 -96.351976 -0.000001 0.000002 -0.000005 4.375469 -0.409729 -44.950694 0.966623 0.328681 -91.921055 -0.000001 0.000000 -0.000005 0.232672 6.121635 -52.931958 0.782594 0.078106 -89.957362 0.000001 0.000004 -0.000001 -11.103506 10.841508 -57.415868 0.696340 -0.010316 -106.970352 -0.000001 -0.000002 -0.000001 0.000001 0.000002 0.000003 -7.296017 21.402408 5.049865 -4.773015 12.248314 21.979737 -14.800933 116.232471 8.083254 -8.901742 3.776062 -31.299591 4.230388 -1.918585 -6.476955 12.275631 -36.017900 7.415598 0.000002 -0.000004 0.000001 16.370758 2.829261 38.403804 -0.505719 -0.751349 100.224768 -0.000002 0.000000 0.000002 5.422020 2.068099 53.814398 0.933725 -0.307701 97.586949 -0.000001 0.000001 0.000000 -0.820401 -4.841773 62.096986 0.758513 -0.091746 96.422641 -0.000002 0.000001 -0.000001 -12.071944 -12.450879 67.577400 0.690993 0.049043 118.162273 0.000001 0.000005 -0.000001 -0.000000 -0.000000 0.000000 0.000001 -0.000001 0.000001 0.000001 -0.000001 0.000001 0.000001 -0.000001 0.000001 0.000001 -0.000001 0.000001 0.000001 -0.000001 0.000001 -0.000000 0.000000 -0.000000 0.000001 -0.000001 0.000001 0.000001 -0.000001 0.000001 -0.000000 0.000000 -0.000000 -0.000001 0.000000 0.000000 -0.000001 0.000000 0.000000 -0.000000 0.000000 -0.000000 
